<svg xmlns="http://www.w3.org/2000/svg" viewBox="0 0 1113.87 212.12"><defs><style>.cls-1{fill:#04d702;}</style></defs><title>logo-studio</title><g id="Layer_2" data-name="Layer 2"><g id="Layer_2-2" data-name="Layer 2"><circle cx="412.43" cy="22.5" r="12.5"/><circle class="cls-1" cx="372.43" cy="60.5" r="29.5"/><path d="M196.9,9.4H162.73a2.21,2.21,0,0,1-2.21-2.21V4.07a2.21,2.21,0,0,1,2.21-2.21h77.36a2.22,2.22,0,0,1,2.22,2.21V7.19a2.22,2.22,0,0,1-2.22,2.21H205.92V116.84a2.21,2.21,0,0,1-2.21,2.21h-4.59a2.21,2.21,0,0,1-2.22-2.21Z"/><path d="M521.68,1.86h9.42a2.2,2.2,0,0,1,2,1.37l40.75,99.27,40.9-99.27a2.21,2.21,0,0,1,2.05-1.37h9.09a2.21,2.21,0,0,1,2.21,2.21V116.84a2.21,2.21,0,0,1-2.21,2.21h-4.59a2.22,2.22,0,0,1-2.22-2.21V13.33L575.6,117.69a2.21,2.21,0,0,1-2,1.36h0a2.21,2.21,0,0,1-2-1.36L528,13.33V116.84a2.21,2.21,0,0,1-2.21,2.21h-4.1a2.21,2.21,0,0,1-2.21-2.21V4.07A2.21,2.21,0,0,1,521.68,1.86Z"/><path d="M728.2,1.86H733a2.21,2.21,0,0,1,2.21,2.21V116.84a2.21,2.21,0,0,1-2.21,2.21H728.2a2.21,2.21,0,0,1-2.21-2.21V4.07A2.21,2.21,0,0,1,728.2,1.86Z"/><path d="M880.39,120.36a57.16,57.16,0,0,1-22.62-4.26,48.83,48.83,0,0,1-17.13-12,52.86,52.86,0,0,1-10.9-18.68A73.72,73.72,0,0,1,826,61.19V59.88A66.25,66.25,0,0,1,830.15,36a58,58,0,0,1,11.56-18.85A52.49,52.49,0,0,1,859,4.81,51.88,51.88,0,0,1,880.39.38a59.64,59.64,0,0,1,17.05,2.39,46.48,46.48,0,0,1,14.34,7,39.3,39.3,0,0,1,10.49,11.52,40.8,40.8,0,0,1,5,13.32,2.22,2.22,0,0,1-2.17,2.65h-4.76a2.22,2.22,0,0,1-2.16-1.75q-3-13-11.84-20-9.43-7.53-25.82-7.54A42.56,42.56,0,0,0,848.1,22.26a48.2,48.2,0,0,0-9.42,16.4,63.53,63.53,0,0,0-3.36,21.22v1.31a68.88,68.88,0,0,0,3.11,21.39,45.79,45.79,0,0,0,9,16.31,39.63,39.63,0,0,0,14.26,10.33,47.25,47.25,0,0,0,18.85,3.6q15.9,0,26.56-8,10-7.58,13.09-21.57a2.2,2.2,0,0,1,2.16-1.7h4a2.22,2.22,0,0,1,2.17,2.7,47.94,47.94,0,0,1-5.37,14,42.46,42.46,0,0,1-10.57,12.16,45.16,45.16,0,0,1-14.51,7.42A59.58,59.58,0,0,1,880.39,120.36Z"/><path d="M1065.44,120.36a57.16,57.16,0,0,1-22.62-4.26,48.74,48.74,0,0,1-17.13-12,52.71,52.71,0,0,1-10.9-18.68A73.72,73.72,0,0,1,1011,61.19V59.88A66,66,0,0,1,1015.2,36a58,58,0,0,1,11.56-18.85,52.49,52.49,0,0,1,17.29-12.37A51.88,51.88,0,0,1,1065.44.38a59.52,59.52,0,0,1,17,2.39,46.43,46.43,0,0,1,14.35,7,39.3,39.3,0,0,1,10.49,11.52,40.8,40.8,0,0,1,5,13.32,2.22,2.22,0,0,1-2.17,2.65h-4.76a2.21,2.21,0,0,1-2.16-1.75q-3-13-11.84-20Q1082,7.93,1065.6,7.92a42.56,42.56,0,0,0-32.45,14.34,48.38,48.38,0,0,0-9.43,16.4,63.78,63.78,0,0,0-3.36,21.22v1.31a68.87,68.87,0,0,0,3.12,21.39,45.79,45.79,0,0,0,9,16.31,39.63,39.63,0,0,0,14.26,10.33,47.25,47.25,0,0,0,18.85,3.6q15.9,0,26.55-8,10-7.58,13.1-21.57a2.2,2.2,0,0,1,2.16-1.7h4a2.22,2.22,0,0,1,2.17,2.7,47.94,47.94,0,0,1-5.37,14,42.46,42.46,0,0,1-10.57,12.16,45.16,45.16,0,0,1-14.51,7.42A59.63,59.63,0,0,1,1065.44,120.36Z"/><path d="M94.38,116.09,53.85,3.32a2.21,2.21,0,0,0-2.08-1.46h-9a2.19,2.19,0,0,0-2.08,1.46L.13,116.09a2.21,2.21,0,0,0,2.08,3h4a2.21,2.21,0,0,0,2.08-1.47L46.93,9.4,85.74,117.59a2.21,2.21,0,0,0,2.08,1.46H92.3A2.21,2.21,0,0,0,94.38,116.09Z"/><path d="M372.43,0a60.5,60.5,0,1,0,60.5,60.5A60.5,60.5,0,0,0,372.43,0Zm0,112a51.5,51.5,0,1,1,51.5-51.5A51.5,51.5,0,0,1,372.43,112Z"/><path d="M746.09,212.12q-9.39,0-14.73-4.47t-5.74-12.6h8.09a11.65,11.65,0,0,0,3.24,7.38c1.83,1.8,4.85,2.7,9,2.7,4,0,6.89-.68,8.68-2s2.7-3.42,2.7-6.21a6.28,6.28,0,0,0-3-5.86,28.74,28.74,0,0,0-9.13-2.88A54.21,54.21,0,0,1,736.6,186,17.6,17.6,0,0,1,731,183a10.43,10.43,0,0,1-3-4.29,16.55,16.55,0,0,1-1-5.88,12.32,12.32,0,0,1,1.6-6.34,14.68,14.68,0,0,1,4.14-4.59,18.86,18.86,0,0,1,5.69-2.79,21.3,21.3,0,0,1,6.24-.95,29.19,29.19,0,0,1,6.69.75,16.32,16.32,0,0,1,5.74,2.56,14.92,14.92,0,0,1,4.24,4.73,18.31,18.31,0,0,1,2.2,7.13h-8a10.11,10.11,0,0,0-3.44-6.24q-2.55-1.93-7.54-1.94a11.7,11.7,0,0,0-7.19,2,6.48,6.48,0,0,0-2.69,5.42,7.42,7.42,0,0,0,.55,3,5.17,5.17,0,0,0,1.94,2.18,14.38,14.38,0,0,0,3.75,1.69,42,42,0,0,0,5.94,1.34q4,.81,7.38,1.75a20.09,20.09,0,0,1,5.84,2.59,11.31,11.31,0,0,1,3.8,4.29,15,15,0,0,1,1.35,6.84,14.78,14.78,0,0,1-4.8,11.52Q755.68,212.11,746.09,212.12Z"/><path d="M814.87,211.92q-7.18,0-10.63-3.8t-3.44-10V166h-7.49v-7h7.49V147.13h8.28V159h12.18v7H809.08v31.34q0,7.59,6.49,7.59a18,18,0,0,0,3.5-.3,19.89,19.89,0,0,0,2.89-.8v7a16.79,16.79,0,0,1-2.89.8A23.71,23.71,0,0,1,814.87,211.92Z"/><path d="M873.27,212.12A23.11,23.11,0,0,1,866,211a14,14,0,0,1-5.74-3.54,17.27,17.27,0,0,1-3.8-6.24,26.72,26.72,0,0,1-1.4-9.19V159h8.29v32.78q0,6.93,3,10.13t9.13,3.21a16.35,16.35,0,0,0,5.39-.9,13,13,0,0,0,7.79-7.22,15.24,15.24,0,0,0,1.2-6.22V159h8.28v52.21h-8.28v-8.29a16.23,16.23,0,0,1-6,6.44A19,19,0,0,1,873.27,212.12Z"/><path d="M955.74,212.12a25,25,0,0,1-9.44-1.75,20.82,20.82,0,0,1-7.49-5.09,23.51,23.51,0,0,1-4.89-8.19,32.14,32.14,0,0,1-1.74-10.93v-.8a32.18,32.18,0,0,1,1.79-11,26.6,26.6,0,0,1,5-8.63,22.13,22.13,0,0,1,7.69-5.65,24.09,24.09,0,0,1,9.88-2q6.6,0,10.69,2.74a21.14,21.14,0,0,1,6.39,6.54V134.05h8.28v77.17h-8.28v-9a16.94,16.94,0,0,1-3,3.7,22.19,22.19,0,0,1-4.24,3.14,24.76,24.76,0,0,1-5.09,2.2A18.92,18.92,0,0,1,955.74,212.12Zm.89-7a19.36,19.36,0,0,0,6.79-1.19,14.3,14.3,0,0,0,5.49-3.63,17.49,17.49,0,0,0,3.65-6.16,25.46,25.46,0,0,0,1.35-8.69v-.79q0-10-4.45-14.8t-12.13-4.77q-7.79,0-12.18,5.16T940.76,185v.8a26.52,26.52,0,0,0,1.25,8.59,17.2,17.2,0,0,0,3.39,6,13.82,13.82,0,0,0,5,3.58A16.21,16.21,0,0,0,956.63,205.13Z"/><path d="M1024,148.12a5.43,5.43,0,1,1,3.9-1.59A5.3,5.3,0,0,1,1024,148.12ZM1020,159h8.28v52.21H1020Z"/><path d="M1088.12,212.12a26,26,0,0,1-10.29-2,24.1,24.1,0,0,1-8.08-5.54,25.12,25.12,0,0,1-5.3-8.44,29.07,29.07,0,0,1-1.89-10.58v-.8A29.08,29.08,0,0,1,1064.5,174a25.77,25.77,0,0,1,5.35-8.43,23.43,23.43,0,0,1,8.08-5.5,28.1,28.1,0,0,1,20.52,0,23.79,23.79,0,0,1,8.13,5.45,25.24,25.24,0,0,1,5.35,8.38,29.08,29.08,0,0,1,1.94,10.78v.8a29.42,29.42,0,0,1-1.94,10.83,24.76,24.76,0,0,1-5.4,8.44,24.35,24.35,0,0,1-8.13,5.44A26.55,26.55,0,0,1,1088.12,212.12Zm.1-7a17.51,17.51,0,0,0,7.08-1.39,14.65,14.65,0,0,0,5.39-4,18.43,18.43,0,0,0,3.4-6.21,25.38,25.38,0,0,0,1.2-8v-.69a26.17,26.17,0,0,0-1.2-8.15,17.8,17.8,0,0,0-3.45-6.26,15,15,0,0,0-5.39-4,17.13,17.13,0,0,0-7-1.39,17.52,17.52,0,0,0-7.09,1.39,14.54,14.54,0,0,0-5.39,4,18.24,18.24,0,0,0-3.4,6.21,25.71,25.71,0,0,0-1.2,8.1v.79q0,8.94,4.55,14.26T1088.22,205.13Z"/></g></g></svg>