<svg xmlns="http://www.w3.org/2000/svg" viewBox="0 0 32 32"><title>ic_extension_32px</title><g class="nc-icon-wrapper" fill="#ffffff"><path d="M27.47 14.74h-2.01v-5.36c0-1.48-1.2-2.68-2.68-2.68h-5.36v-2.01c0-1.85-1.5-3.35-3.35-3.35s-3.35 1.5-3.35 3.35v2.01h-5.36c-1.48 0-2.67 1.2-2.67 2.68l0 5.09h2c2 0 3.62 1.62 3.62 3.62s-1.62 3.62-3.62 3.62h-2l-0.01 5.09c0 1.48 1.2 2.68 2.68 2.68h5.09v-2.01c0-2 1.62-3.62 3.62-3.62 2 0 3.62 1.62 3.62 3.62v2.01h5.09c1.48 0 2.68-1.2 2.68-2.68v-5.36h2.01c1.85 0 3.35-1.5 3.35-3.35s-1.5-3.35-3.35-3.35z"/></g></svg>