<svg xmlns="http://www.w3.org/2000/svg" width="32" height="32" viewBox="0 0 32 32"><title>multiple-11</title><g fill="#ffffff"><circle cx="6" cy="6" r="3"></circle> <path d="M7,25V15c0-1.479,0.464-2.85,1.25-3.982C8.167,11.013,8.084,11,8,11H4c-2.206,0-4,1.794-4,4 v6h2v7h7v-3H7z"></path> <circle cx="26" cy="6" r="3"></circle> <path d="M25,25V15c0-1.479-0.464-2.85-1.25-3.982C23.833,11.013,23.916,11,24,11h4 c2.206,0,4,1.794,4,4v6h-2v7h-7v-3H25z"></path> <path fill="#ffffff" d="M18,10h-4c-2.757,0-5,2.243-5,5v8h3v8h8v-8h3v-8C23,12.243,20.757,10,18,10z"></path> <circle fill="#ffffff" cx="16" cy="4" r="4"></circle></g></svg>